<svg width="62" height="62" viewBox="0 0 62 62" fill="none" xmlns="http://www.w3.org/2000/svg">
<path d="M7.75 9.8125C6.68437 9.8125 5.8125 10.6844 5.8125 11.75V31.3672C6.43008 31.2098 7.08398 31.125 7.75 31.125H54.25C54.916 31.125 55.5699 31.2098 56.1875 31.3672V11.75C56.1875 10.6844 55.3156 9.8125 54.25 9.8125H7.75ZM5.8125 38.875V50.5C5.8125 51.5656 6.68437 52.4375 7.75 52.4375H54.25C55.3156 52.4375 56.1875 51.5656 56.1875 50.5V38.875C56.1875 37.8094 55.3156 36.9375 54.25 36.9375H7.75C6.68437 36.9375 5.8125 37.8094 5.8125 38.875ZM0 38.875V11.75C0 7.47539 3.47539 4 7.75 4H54.25C58.5246 4 62 7.47539 62 11.75V38.875V50.5C62 54.7746 58.5246 58.25 54.25 58.25H7.75C3.47539 58.25 0 54.7746 0 50.5V38.875ZM33.9062 44.6875C33.9062 43.9167 34.2124 43.1775 34.7575 42.6325C35.3025 42.0874 36.0417 41.7812 36.8125 41.7812C37.5833 41.7812 38.3225 42.0874 38.8675 42.6325C39.4126 43.1775 39.7188 43.9167 39.7188 44.6875C39.7188 45.4583 39.4126 46.1975 38.8675 46.7425C38.3225 47.2876 37.5833 47.5938 36.8125 47.5938C36.0417 47.5938 35.3025 47.2876 34.7575 46.7425C34.2124 46.1975 33.9062 45.4583 33.9062 44.6875ZM48.4375 41.7812C49.2083 41.7812 49.9475 42.0874 50.4925 42.6325C51.0376 43.1775 51.3438 43.9167 51.3438 44.6875C51.3438 45.4583 51.0376 46.1975 50.4925 46.7425C49.9475 47.2876 49.2083 47.5938 48.4375 47.5938C47.6667 47.5938 46.9275 47.2876 46.3825 46.7425C45.8374 46.1975 45.5312 45.4583 45.5312 44.6875C45.5312 43.9167 45.8374 43.1775 46.3825 42.6325C46.9275 42.0874 47.6667 41.7812 48.4375 41.7812Z" fill="#13252F"/>
</svg>
