<svg width="62" height="62" viewBox="0 0 62 62" fill="none" xmlns="http://www.w3.org/2000/svg">
<g clip-path="url(#clip0_228_3185)">
<path d="M44.0392 43.8436L52.7218 61.6072C52.3942 61.8539 51.8481 61.9773 51.0836 61.9773H10.521C9.86575 61.9773 9.31967 61.8539 8.88281 61.6072L17.8931 44.0287" fill="#2684FC"/>
<path d="M43.709 43.8436L52.7192 61.6072C53.3745 61.2371 53.9206 60.6204 54.3575 59.7568L61.4018 45.694C61.6203 44.9539 61.7295 44.3371 61.7295 43.8436" fill="#EA4335"/>
<path d="M17.7509 44.3334L-0.210367 43.9447C-0.23571 43.5008 -0.057255 42.905 0.325 42.1572L20.6063 2.47997C20.9339 1.83898 21.3015 1.36651 21.7091 1.06254L30.6821 18.6654" fill="#00AC47"/>
<path d="M17.915 44.0128L-0.210061 43.9446C-0.253958 44.7706 -0.0540802 45.6132 0.389571 46.4723L7.64986 60.3943C8.10814 60.9781 8.52645 61.3933 8.90478 61.64" fill="#0066DA"/>
<path d="M30.5185 18.3735L39.7972 0.998647C40.1501 1.19578 40.5178 1.66826 40.9 2.41608L61.1813 42.0933C61.5089 42.7343 61.6874 43.3301 61.7167 43.8808L43.7334 43.8565" fill="#FFBA00"/>
<path d="M30.6826 18.6941L39.7975 0.998705C39.1861 0.542754 38.4401 0.316992 37.5596 0.32142L23.2549 0.462217C22.5782 0.618629 22.0507 0.820194 21.6724 1.06691" fill="#00832D"/>
</g>
<defs>
<clipPath id="clip0_228_3185">
<rect width="62" height="62" fill="white"/>
</clipPath>
</defs>
</svg>
