<svg width="16" height="16" viewBox="0 0 16 16" fill="none" xmlns="http://www.w3.org/2000/svg">
<path d="M1.77778 0.827637C0.797222 0.827637 0 1.63173 0 2.62074V10.6897C0 11.6787 0.797222 12.4828 1.77778 12.4828H6.66667L6.36944 13.3794H4.44444C3.95278 13.3794 3.55556 13.78 3.55556 14.2759C3.55556 14.7718 3.95278 15.1725 4.44444 15.1725H11.5556C12.0472 15.1725 12.4444 14.7718 12.4444 14.2759C12.4444 13.78 12.0472 13.3794 11.5556 13.3794H9.63056L9.33333 12.4828H14.2222C15.2028 12.4828 16 11.6787 16 10.6897V2.62074C16 1.63173 15.2028 0.827637 14.2222 0.827637H1.77778ZM14.2222 2.62074V8.8966H1.77778V2.62074H14.2222Z" fill="#F7FBFC"/>
</svg>
