<svg width="62" height="62" viewBox="0 0 62 62" fill="none" xmlns="http://www.w3.org/2000/svg">
<g clip-path="url(#clip0_228_1844)">
<path d="M6.88889 0C3.08924 0 0 3.47539 0 7.75V42.625C0 46.8996 3.08924 50.375 6.88889 50.375H25.8333L24.6816 54.25H17.2222C15.317 54.25 13.7778 55.9816 13.7778 58.125C13.7778 60.2684 15.317 62 17.2222 62H44.7778C46.683 62 48.2222 60.2684 48.2222 58.125C48.2222 55.9816 46.683 54.25 44.7778 54.25H37.3184L36.1667 50.375H55.1111C58.9108 50.375 62 46.8996 62 42.625V7.75C62 3.47539 58.9108 0 55.1111 0H6.88889ZM55.1111 7.75V34.875H6.88889V7.75H55.1111Z" fill="#13252F"/>
</g>
<defs>
<clipPath id="clip0_228_1844">
<rect width="62" height="62" fill="white"/>
</clipPath>
</defs>
</svg>
