<svg width="62" height="62" viewBox="0 0 62 62" fill="none" xmlns="http://www.w3.org/2000/svg">
<g clip-path="url(#clip0_228_3187)">
<g clip-path="url(#clip1_228_3187)">
<path opacity="0.2" d="M34.4851 48.4714C50.4198 44.6446 61.7769 36.3222 59.8518 29.8828C57.9267 23.4435 43.4484 21.3256 27.5136 25.1524C11.5788 28.9792 0.221751 37.3016 2.14687 43.741C4.07199 50.1803 18.5503 52.2983 34.4851 48.4714Z" fill="#022900"/>
<path d="M29.0621 13.5625C15.4996 13.5625 18.6542 25.5186 11.7102 29.2506C4.66531 33.2474 8.54666 36.8254 9.68715 40.6875C11.6112 47.1272 17.0011 42.5774 32.9371 38.75C48.8724 34.9235 52.299 35.5018 50.3746 29.0625C49.2208 25.2435 53.0079 21.7041 44.7731 21.3671C38.0798 21.7337 38.7496 13.5625 29.0621 13.5625Z" fill="#4F4F4F"/>
<path opacity="0.1" d="M29.0627 13.5625C15.5002 13.5625 18.6563 25.5197 11.7123 29.2517C7.95545 31.3831 7.33505 33.3937 7.71995 35.3934C8.05587 34.0241 9.16404 32.6311 11.7123 31.1854C18.6563 27.4534 15.5002 15.5 29.0627 15.5C38.7502 15.5 38.0814 23.6696 44.7746 23.303C48.8119 23.4682 49.9555 24.4062 50.2125 25.7665C50.4099 23.4084 50.5166 21.6005 44.7746 21.3655C38.0814 21.7321 38.7502 13.5625 29.0627 13.5625ZM50.1898 27.9575C50.1116 28.9115 50.0552 29.9407 50.3752 31C50.5484 31.5796 50.661 32.0849 50.7423 32.5591C50.9668 31.6756 50.8242 30.5649 50.3752 29.0625C50.2623 28.6887 50.224 28.3232 50.1898 27.9575Z" fill="white"/>
<path d="M34.486 46.5354C50.4208 42.7086 61.7779 34.3862 59.8527 27.9468C57.9276 21.5074 43.4493 19.3895 27.5146 23.2163C11.5798 27.0431 0.222728 35.3655 2.14785 41.8049C4.07297 48.2443 18.5513 50.3622 34.486 46.5354Z" fill="#2E72DE"/>
<path opacity="0.2" d="M34.251 51.4968C41.706 49.7157 47.1613 45.6009 46.4357 42.3059C45.7101 39.011 39.0784 37.7838 31.6234 39.5648C24.1685 41.3458 18.7132 45.4607 19.4388 48.7557C20.1644 52.0506 26.7961 53.2778 34.251 51.4968Z" fill="#022900"/>
<path d="M34.251 49.5589C41.706 47.7779 47.1613 43.663 46.4357 40.3681C45.7101 37.0731 39.0784 35.8459 31.6234 37.6269C24.1685 39.408 18.7132 43.5229 19.4388 46.8178C20.1644 50.1127 26.7961 51.34 34.251 49.5589Z" fill="white"/>
<path opacity="0.1" d="M41.7739 21.3201C37.2517 21.4029 32.3487 22.0548 27.5151 23.216C20.1143 24.9973 13.3436 27.8591 8.60348 31.2096C3.86332 34.5601 1.51622 38.143 2.04759 41.2173C2.61549 38.2699 5.45759 35.0638 10.0958 32.1382C14.734 29.2126 20.8854 26.746 27.5151 25.1535C31.3043 24.2434 35.1467 23.6438 38.8227 23.389C42.4987 23.1342 45.9363 23.2292 48.9394 23.6684C51.9424 24.1077 54.4521 24.8826 56.3249 25.949C58.1978 27.0155 59.3972 28.3525 59.8547 29.8837C59.8991 30.0767 59.9319 30.2722 59.9531 30.4702C60.1244 29.5912 60.0915 28.7454 59.8547 27.9462C59.2295 25.8524 57.2207 24.1322 54.0392 22.9663C50.8578 21.8004 46.621 21.2317 41.7739 21.3201Z" fill="white"/>
</g>
</g>
<defs>
<clipPath id="clip0_228_3187">
<rect width="62" height="62" fill="white"/>
</clipPath>
<clipPath id="clip1_228_3187">
<rect width="62" height="62" fill="white"/>
</clipPath>
</defs>
</svg>
