<svg width="62" height="62" viewBox="0 0 62 62" fill="none" xmlns="http://www.w3.org/2000/svg">
<g clip-path="url(#clip0_461_1947)">
<g clip-path="url(#clip1_461_1947)">
<path d="M1.39707 27.3525C-0.465689 29.3699 -0.465689 32.6462 1.39707 34.6637L25.2404 60.4869C27.1031 62.5044 30.1282 62.5044 31.991 60.4869C33.8537 58.4695 33.8537 55.1931 31.991 53.1757L11.5156 31L31.9761 8.82429C33.8388 6.80685 33.8388 3.53052 31.9761 1.51308C30.1133 -0.50436 27.0882 -0.50436 25.2255 1.51308L1.38217 27.3363L1.39707 27.3525ZM53.8523 1.52922L30.009 27.3525C28.1463 29.3699 28.1463 32.6462 30.009 34.6637L53.8523 60.4869C55.7151 62.5044 58.7402 62.5044 60.6029 60.4869C62.4657 58.4695 62.4657 55.1931 60.6029 53.1757L40.1275 31L60.588 8.82429C62.4508 6.80685 62.4508 3.53052 60.588 1.51308C58.7253 -0.50436 55.7002 -0.50436 53.8374 1.51308L53.8523 1.52922Z" fill="#13252F"/>
</g>
</g>
<defs>
<clipPath id="clip0_461_1947">
<rect width="62" height="62" fill="white"/>
</clipPath>
<clipPath id="clip1_461_1947">
<rect width="62" height="62" fill="white"/>
</clipPath>
</defs>
</svg>
