<svg width="62" height="62" viewBox="0 0 62 62" fill="none" xmlns="http://www.w3.org/2000/svg">
<g clip-path="url(#clip0_461_1577)">
<g clip-path="url(#clip1_461_1577)">
<path d="M60.6029 34.6475C62.4657 32.6301 62.4657 29.3538 60.6029 27.3363L36.7596 1.51308C34.8969 -0.50436 31.8718 -0.50436 30.009 1.51308C28.1463 3.53052 28.1463 6.80685 30.009 8.82429L50.4844 31L30.0239 53.1757C28.1612 55.1931 28.1612 58.4695 30.0239 60.4869C31.8867 62.5044 34.9118 62.5044 36.7745 60.4869L60.6178 34.6637L60.6029 34.6475ZM8.1477 60.4708L31.991 34.6475C33.8537 32.6301 33.8537 29.3538 31.991 27.3363L8.1477 1.51308C6.28494 -0.50436 3.25982 -0.50436 1.39707 1.51308C-0.465689 3.53052 -0.465689 6.80685 1.39707 8.82429L21.8725 31L1.41197 53.1757C-0.450787 55.1931 -0.450787 58.4695 1.41197 60.4869C3.27473 62.5044 6.29984 62.5044 8.1626 60.4869L8.1477 60.4708Z" fill="#13252F"/>
</g>
</g>
<defs>
<clipPath id="clip0_461_1577">
<rect width="62" height="62" fill="white"/>
</clipPath>
<clipPath id="clip1_461_1577">
<rect width="62" height="62" fill="white"/>
</clipPath>
</defs>
</svg>
