<svg width="62" height="62" viewBox="0 0 62 62" fill="none" xmlns="http://www.w3.org/2000/svg">
<g clip-path="url(#clip0_439_2150)">
<g clip-path="url(#clip1_439_2150)">
<path d="M41.6562 0H59.0938C60.7043 0 62 1.2957 62 2.90625V20.3438C62 21.5184 61.2977 22.584 60.2078 23.032C59.118 23.4801 57.8707 23.2379 57.0352 22.4023L52.3125 17.6797L41.7773 28.2148C40.6391 29.3531 38.7984 29.3531 37.6723 28.2148L33.7973 24.3398C32.659 23.2016 32.659 21.3609 33.7973 20.2348L44.3324 9.69961L39.5977 4.96484C38.7621 4.1293 38.5199 2.88203 38.968 1.79219C39.416 0.702344 40.4816 0 41.6562 0ZM20.3438 62H2.90625C1.2957 62 0 60.7043 0 59.0938V41.6562C0 40.4816 0.702344 39.416 1.79219 38.968C2.88203 38.5199 4.1293 38.7621 4.96484 39.5977L9.6875 44.3203L20.2227 33.7852C21.3609 32.6469 23.2016 32.6469 24.3277 33.7852L28.2027 37.6602C29.341 38.7984 29.341 40.6391 28.2027 41.7652L17.6676 52.3004L22.3902 57.023C23.2258 57.8586 23.468 59.1059 23.0199 60.1957C22.5719 61.2855 21.5063 61.9879 20.3316 61.9879L20.3438 62Z" fill="#13252F"/>
</g>
</g>
<defs>
<clipPath id="clip0_439_2150">
<rect width="62" height="62" fill="white"/>
</clipPath>
<clipPath id="clip1_439_2150">
<rect width="62" height="62" fill="white"/>
</clipPath>
</defs>
</svg>
