<svg width="52" height="62" viewBox="0 0 52 62" fill="none" xmlns="http://www.w3.org/2000/svg">
<g clip-path="url(#clip0_436_1491)">
<g clip-path="url(#clip1_436_1491)">
<path d="M7.75 0C3.47135 0 0 3.47135 0 7.75V54.25C0 58.5286 3.47135 62 7.75 62H12.9167C17.1953 62 20.6667 58.5286 20.6667 54.25V7.75C20.6667 3.47135 17.1953 0 12.9167 0H7.75ZM38.75 0C34.4714 0 31 3.47135 31 7.75V54.25C31 58.5286 34.4714 62 38.75 62H43.9167C48.1953 62 51.6667 58.5286 51.6667 54.25V7.75C51.6667 3.47135 48.1953 0 43.9167 0H38.75Z" fill="#13252F"/>
</g>
</g>
<defs>
<clipPath id="clip0_436_1491">
<rect width="52" height="62" fill="white"/>
</clipPath>
<clipPath id="clip1_436_1491">
<rect width="52" height="62" fill="white"/>
</clipPath>
</defs>
</svg>
