<svg width="62" height="62" viewBox="0 0 62 62" fill="none" xmlns="http://www.w3.org/2000/svg">
<g clip-path="url(#clip0_437_1865)">
<g clip-path="url(#clip1_437_1865)">
<path d="M41.6695 0.384846C43.261 1.10448 44.2851 2.68214 44.2851 4.42586V57.568C44.2851 59.3118 43.261 60.8894 41.6695 61.609C40.078 62.3287 38.2098 62.0381 36.9089 60.8756L18.2399 44.2825H8.85703C3.97182 44.2825 0 40.3107 0 35.4255V26.5684C0 21.6832 3.97182 17.7114 8.85703 17.7114H18.2399L36.9089 1.11832C38.2098 -0.0441664 40.078 -0.320948 41.6695 0.384846ZM57.1001 20.6868C60.0756 23.1225 61.9992 26.8314 61.9992 30.9969C61.9992 35.1625 60.0756 38.8714 57.1001 41.3071C55.6747 42.4696 53.585 42.2481 52.4225 40.8227C51.26 39.3973 51.4815 37.3076 52.9069 36.1451C54.4015 34.9273 55.3564 33.0728 55.3564 30.9969C55.3564 28.9211 54.4015 27.0666 52.9069 25.835C51.4815 24.6725 51.2739 22.5828 52.4225 21.1573C53.5712 19.7319 55.6747 19.5243 57.1001 20.673V20.6868Z" fill="#13252F"/>
</g>
</g>
<defs>
<clipPath id="clip0_437_1865">
<rect width="62" height="62" fill="white"/>
</clipPath>
<clipPath id="clip1_437_1865">
<rect width="62" height="62" fill="white"/>
</clipPath>
</defs>
</svg>
