<svg width="62" height="62" viewBox="0 0 62 62" fill="none" xmlns="http://www.w3.org/2000/svg">
<path d="M62 50.5C62 54.7746 58.5246 58.25 54.25 58.25H7.75C3.47539 58.25 0 54.7746 0 50.5V11.75C0 7.47539 3.47539 4 7.75 4H23.25C25.684 4 27.9848 5.15039 29.45 7.1L31.775 10.2C32.5016 11.1809 33.652 11.75 34.875 11.75H54.25C58.5246 11.75 62 15.2254 62 19.5V50.5ZM28.0938 45.6562C28.0938 47.2668 29.3895 48.5625 31 48.5625C32.6105 48.5625 33.9062 47.2668 33.9062 45.6562V37.9062H41.6562C43.2668 37.9062 44.5625 36.6105 44.5625 35C44.5625 33.3895 43.2668 32.0938 41.6562 32.0938H33.9062V24.3438C33.9062 22.7332 32.6105 21.4375 31 21.4375C29.3895 21.4375 28.0938 22.7332 28.0938 24.3438V32.0938H20.3438C18.7332 32.0938 17.4375 33.3895 17.4375 35C17.4375 36.6105 18.7332 37.9062 20.3438 37.9062H28.0938V45.6562Z" fill="#13252F"/>
</svg>
