<svg width="62" height="62" viewBox="0 0 62 62" fill="none" xmlns="http://www.w3.org/2000/svg">
<g clip-path="url(#clip0_228_1838)">
<path d="M34.875 3.875C34.875 1.73164 33.1434 0 31 0C28.8566 0 27.125 1.73164 27.125 3.875V33.2645L18.2367 24.3762C16.723 22.8625 14.2648 22.8625 12.7512 24.3762C11.2375 25.8898 11.2375 28.348 12.7512 29.8617L28.2512 45.3617C29.7648 46.8754 32.223 46.8754 33.7367 45.3617L49.2367 29.8617C50.7504 28.348 50.7504 25.8898 49.2367 24.3762C47.723 22.8625 45.2648 22.8625 43.7512 24.3762L34.875 33.2645V3.875ZM7.75 42.625C3.47539 42.625 0 46.1004 0 50.375V54.25C0 58.5246 3.47539 62 7.75 62H54.25C58.5246 62 62 58.5246 62 54.25V50.375C62 46.1004 58.5246 42.625 54.25 42.625H41.959L36.4734 48.1105C33.4461 51.1379 28.5418 51.1379 25.5145 48.1105L20.041 42.625H7.75ZM52.3125 49.4062C53.0833 49.4062 53.8225 49.7124 54.3675 50.2575C54.9126 50.8025 55.2188 51.5417 55.2188 52.3125C55.2188 53.0833 54.9126 53.8225 54.3675 54.3675C53.8225 54.9126 53.0833 55.2188 52.3125 55.2188C51.5417 55.2188 50.8025 54.9126 50.2575 54.3675C49.7124 53.8225 49.4062 53.0833 49.4062 52.3125C49.4062 51.5417 49.7124 50.8025 50.2575 50.2575C50.8025 49.7124 51.5417 49.4062 52.3125 49.4062Z" fill="#13252F"/>
</g>
<defs>
<clipPath id="clip0_228_1838">
<rect width="62" height="62" fill="white"/>
</clipPath>
</defs>
</svg>
