<svg width="62" height="62" viewBox="0 0 62 62" fill="none" xmlns="http://www.w3.org/2000/svg">
<g clip-path="url(#clip0_244_6062)">
<path d="M61.9785 30.9395C61.9785 33.1191 60.3639 34.8266 58.534 34.8266H55.0896L55.1649 54.2258C55.1865 58.5246 52.0972 62.0121 48.276 62.0121H13.7885C9.98889 62.0121 6.89965 58.5367 6.89965 54.2621V34.8266H3.44444C1.50694 34.8266 0 33.1312 0 30.9395C0 29.8496 0.322917 28.8809 1.07639 28.0332L28.675 0.96875C29.4285 0.121094 30.2896 0 31.0431 0C31.7965 0 32.6576 0.242188 33.3035 0.847656L60.7944 28.0332C61.6556 28.8809 62.0861 29.8496 61.9785 30.9395ZM37.8889 27.125C37.8889 25.0696 37.1631 23.0983 35.8712 21.6449C34.5793 20.1915 32.827 19.375 31 19.375C29.173 19.375 27.4207 20.1915 26.1288 21.6449C24.8369 23.0983 24.1111 25.0696 24.1111 27.125C24.1111 29.1804 24.8369 31.1517 26.1288 32.6051C27.4207 34.0585 29.173 34.875 31 34.875C32.827 34.875 34.5793 34.0585 35.8712 32.6051C37.1631 31.1517 37.8889 29.1804 37.8889 27.125ZM27.5556 38.75C22.7979 38.75 18.9444 43.0852 18.9444 48.4375C18.9444 49.5031 19.7194 50.375 20.6667 50.375H41.3333C42.2806 50.375 43.0556 49.5031 43.0556 48.4375C43.0556 43.0852 39.2021 38.75 34.4444 38.75H27.5556Z" fill="#13252F"/>
</g>
<defs>
<clipPath id="clip0_244_6062">
<rect width="62" height="62" fill="white"/>
</clipPath>
</defs>
</svg>
