<svg width="62" height="62" viewBox="0 0 62 62" fill="none" xmlns="http://www.w3.org/2000/svg">
<path d="M45.7613 12.9488L60.6316 27.8191C61.5035 28.691 62 29.8898 62 31.125C62 32.3602 61.5035 33.559 60.6316 34.4309L45.7613 49.3012C44.9863 50.0762 43.9449 50.5 42.8551 50.5C40.5906 50.5 38.75 48.6594 38.75 46.3949V38.875H23.25C21.1066 38.875 19.375 37.1434 19.375 35V27.25C19.375 25.1066 21.1066 23.375 23.25 23.375H38.75V15.8551C38.75 13.5906 40.5906 11.75 42.8551 11.75C43.9449 11.75 44.9863 12.1859 45.7613 12.9488ZM19.375 11.75H11.625C9.48164 11.75 7.75 13.4816 7.75 15.625V46.625C7.75 48.7684 9.48164 50.5 11.625 50.5H19.375C21.5184 50.5 23.25 52.2316 23.25 54.375C23.25 56.5184 21.5184 58.25 19.375 58.25H11.625C5.20703 58.25 0 53.043 0 46.625V15.625C0 9.20703 5.20703 4 11.625 4H19.375C21.5184 4 23.25 5.73164 23.25 7.875C23.25 10.0184 21.5184 11.75 19.375 11.75Z" fill="#13252F"/>
</svg>
