<svg width="62" height="62" viewBox="0 0 62 62" fill="none" xmlns="http://www.w3.org/2000/svg">
<g clip-path="url(#clip0_228_1852)">
<path d="M31 0C32.7147 0 34.1 1.73164 34.1 3.875V11.625H45.725C49.5806 11.625 52.7 15.5242 52.7 20.3438V53.2812C52.7 58.1008 49.5806 62 45.725 62H16.275C12.4194 62 9.3 58.1008 9.3 53.2812V20.3438C9.3 15.5242 12.4194 11.625 16.275 11.625H27.9V3.875C27.9 1.73164 29.2853 0 31 0ZM20.15 46.5C19.2975 46.5 18.6 47.3719 18.6 48.4375C18.6 49.5031 19.2975 50.375 20.15 50.375H23.25C24.1025 50.375 24.8 49.5031 24.8 48.4375C24.8 47.3719 24.1025 46.5 23.25 46.5H20.15ZM29.45 46.5C28.5975 46.5 27.9 47.3719 27.9 48.4375C27.9 49.5031 28.5975 50.375 29.45 50.375H32.55C33.4025 50.375 34.1 49.5031 34.1 48.4375C34.1 47.3719 33.4025 46.5 32.55 46.5H29.45ZM38.75 46.5C37.8975 46.5 37.2 47.3719 37.2 48.4375C37.2 49.5031 37.8975 50.375 38.75 50.375H41.85C42.7025 50.375 43.4 49.5031 43.4 48.4375C43.4 47.3719 42.7025 46.5 41.85 46.5H38.75ZM25.575 31C25.575 29.7154 25.1667 28.4833 24.44 27.575C23.7133 26.6666 22.7277 26.1562 21.7 26.1562C20.6723 26.1562 19.6867 26.6666 18.96 27.575C18.2333 28.4833 17.825 29.7154 17.825 31C17.825 32.2846 18.2333 33.5167 18.96 34.425C19.6867 35.3334 20.6723 35.8438 21.7 35.8438C22.7277 35.8438 23.7133 35.3334 24.44 34.425C25.1667 33.5167 25.575 32.2846 25.575 31ZM40.3 35.8438C41.3277 35.8438 42.3133 35.3334 43.04 34.425C43.7667 33.5167 44.175 32.2846 44.175 31C44.175 29.7154 43.7667 28.4833 43.04 27.575C42.3133 26.6666 41.3277 26.1562 40.3 26.1562C39.2723 26.1562 38.2867 26.6666 37.56 27.575C36.8333 28.4833 36.425 29.7154 36.425 31C36.425 32.2846 36.8333 33.5167 37.56 34.425C38.2867 35.3334 39.2723 35.8438 40.3 35.8438ZM4.65 27.125H6.2V50.375H4.65C2.08281 50.375 0 47.7715 0 44.5625V32.9375C0 29.7285 2.08281 27.125 4.65 27.125ZM57.35 27.125C59.9172 27.125 62 29.7285 62 32.9375V44.5625C62 47.7715 59.9172 50.375 57.35 50.375H55.8V27.125H57.35Z" fill="#13252F"/>
</g>
<defs>
<clipPath id="clip0_228_1852">
<rect width="62" height="62" fill="white"/>
</clipPath>
</defs>
</svg>
