<svg width="62" height="62" viewBox="0 0 62 62" fill="none" xmlns="http://www.w3.org/2000/svg">
<g clip-path="url(#clip0_228_1825)">
<path d="M50.375 25.1875C50.375 30.7457 48.5707 35.8801 45.5312 40.0457L60.8617 55.3883C62.3754 56.902 62.3754 59.3602 60.8617 60.8738C59.348 62.3875 56.8898 62.3875 55.3762 60.8738L40.0457 45.5312C35.8801 48.5828 30.7457 50.375 25.1875 50.375C11.2738 50.375 0 39.1012 0 25.1875C0 11.2738 11.2738 0 25.1875 0C39.1012 0 50.375 11.2738 50.375 25.1875ZM25.1875 42.625C27.4774 42.625 29.7449 42.174 31.8605 41.2976C33.9762 40.4213 35.8985 39.1369 37.5177 37.5177C39.1369 35.8985 40.4213 33.9762 41.2976 31.8605C42.174 29.7449 42.625 27.4774 42.625 25.1875C42.625 22.8976 42.174 20.6301 41.2976 18.5145C40.4213 16.3988 39.1369 14.4765 37.5177 12.8573C35.8985 11.2381 33.9762 9.95367 31.8605 9.07735C29.7449 8.20103 27.4774 7.75 25.1875 7.75C22.8976 7.75 20.6301 8.20103 18.5145 9.07735C16.3988 9.95367 14.4765 11.2381 12.8573 12.8573C11.2381 14.4765 9.95367 16.3988 9.07735 18.5145C8.20103 20.6301 7.75 22.8976 7.75 25.1875C7.75 27.4774 8.20103 29.7449 9.07735 31.8605C9.95367 33.9762 11.2381 35.8985 12.8573 37.5177C14.4765 39.1369 16.3988 40.4213 18.5145 41.2976C20.6301 42.174 22.8976 42.625 25.1875 42.625Z" fill="#13252F"/>
</g>
<defs>
<clipPath id="clip0_228_1825">
<rect width="62" height="62" fill="white"/>
</clipPath>
</defs>
</svg>
