<svg width="62" height="62" viewBox="0 0 62 62" fill="none" xmlns="http://www.w3.org/2000/svg">
<g clip-path="url(#clip0_239_5570)">
<path d="M30.0791 15.7746C30.7797 14.994 31.056 13.7672 30.6909 12.6767C30.4639 12.02 30.2172 11.3756 29.941 10.756L29.6351 10.0869C29.339 9.46727 29.0134 8.86007 28.6681 8.27766C28.1056 7.33589 27.1189 7.0261 26.2308 7.39785L23.4482 8.55028C22.3924 7.45981 21.1787 6.56761 19.8763 5.96041L19.2743 2.36682C19.0869 1.21439 18.3764 0.297401 17.4489 0.161092C16.7976 0.0495667 16.1365 0 15.4655 0H15.3965C14.7255 0 14.0644 0.0495666 13.4131 0.148701C12.4856 0.28501 11.7752 1.21439 11.5877 2.35443L10.9858 5.96041C9.6734 6.58 8.46959 7.45981 7.41378 8.55028L4.62132 7.41024C3.73326 7.03849 2.74652 7.34828 2.18408 8.29006C1.83872 8.87247 1.5131 9.47966 1.20721 10.0992L0.911191 10.756C0.634905 11.3756 0.388221 12.02 0.161272 12.6891C-0.20382 13.7672 0.0724659 14.994 0.773048 15.787L2.9636 18.2406C2.85506 19.0708 2.79586 19.9383 2.79586 20.8181C2.79586 21.6979 2.85506 22.5653 2.9636 23.4079L0.773048 25.8615C0.0724659 26.6422 -0.20382 27.869 0.161272 28.9594C0.388221 29.6162 0.634905 30.2606 0.911191 30.8925L1.20721 31.5369C1.50323 32.1689 1.82886 32.7637 2.18408 33.3461C2.74652 34.2879 3.73326 34.5977 4.62132 34.2259L7.40391 33.0735C8.45972 34.1639 9.6734 35.0562 10.9759 35.6633L11.5778 39.2693C11.7653 40.4218 12.4757 41.3388 13.4033 41.4751C14.0644 41.5742 14.7354 41.6238 15.4162 41.6238C16.0971 41.6238 16.768 41.5742 17.4291 41.4751C18.3567 41.3388 19.0671 40.4094 19.2546 39.2693L19.8565 35.6633C21.1689 35.0438 22.3727 34.1639 23.4285 33.0735L26.2111 34.2259C27.0992 34.5977 28.0859 34.2879 28.6483 33.3461C28.9937 32.7637 29.3193 32.1689 29.6153 31.5369L29.9212 30.8678C30.1975 30.2482 30.4442 29.6038 30.6711 28.947C31.0362 27.869 30.7599 26.6422 30.0594 25.8491L27.8688 23.3956C27.9774 22.5529 28.0366 21.6855 28.0366 20.8057C28.0366 19.9259 27.9774 19.0585 27.8688 18.2158L30.0594 15.7623L30.0791 15.7746ZM10.6897 20.8181C10.6897 19.2406 11.1887 17.7277 12.077 16.6122C12.9652 15.4967 14.1699 14.8701 15.4261 14.8701C16.6822 14.8701 17.8869 15.4967 18.7752 16.6122C19.6634 17.7277 20.1624 19.2406 20.1624 20.8181C20.1624 22.3956 19.6634 23.9085 18.7752 25.024C17.8869 26.1394 16.6822 26.7661 15.4261 26.7661C14.1699 26.7661 12.9652 26.1394 12.077 25.024C11.1887 23.9085 10.6897 22.3956 10.6897 20.8181ZM49.4389 61.0292C50.0605 61.909 51.0374 62.256 51.9057 61.7975C52.4287 61.5125 52.9418 61.2027 53.4351 60.8557L53.968 60.4716C54.4613 60.0998 54.9448 59.6909 55.4086 59.2572C56.1585 58.5508 56.4052 57.3117 56.1092 56.1964L55.1915 52.702C56.0598 51.376 56.7703 49.8519 57.2538 48.2162L60.1252 47.4603C61.0429 47.2248 61.773 46.3326 61.8816 45.1678C61.9605 44.3375 62 43.4949 62 42.6399C62 41.7849 61.9605 40.9422 61.8816 40.112C61.773 38.9472 61.033 38.0549 60.1252 37.8195L57.2538 37.0512C56.7604 35.4031 56.0598 33.8913 55.1915 32.5654L56.1092 29.071C56.4052 27.9557 56.1585 26.7165 55.4086 26.0102C54.9448 25.5765 54.4613 25.1676 53.968 24.7834L53.445 24.4117C52.9516 24.0647 52.4385 23.7549 51.9057 23.4699C51.0472 23.0114 50.0704 23.3584 49.4389 24.2382L47.4851 26.9891C46.8141 26.8528 46.1234 26.7785 45.4228 26.7785C44.7223 26.7785 44.0315 26.8528 43.3606 26.9891L41.4068 24.2382C40.7852 23.3584 39.8083 23.0114 38.94 23.4699C38.417 23.7549 37.9039 24.0647 37.4007 24.4117L36.8876 24.7834C36.3843 25.1552 35.9107 25.5641 35.4469 26.0102C34.697 26.7165 34.4503 27.9557 34.7464 29.071L35.664 32.5654C34.7957 33.8913 34.0852 35.4155 33.6017 37.0512L30.7303 37.7947C29.8127 38.0302 29.0825 38.9224 28.974 40.0872C28.895 40.9174 28.8555 41.7601 28.8555 42.6151C28.8555 43.4701 28.895 44.3128 28.974 45.143C29.0825 46.3078 29.8225 47.2 30.7303 47.4355L33.6017 48.1914C34.0951 49.8395 34.7957 51.3513 35.664 52.6772L34.7464 56.1716C34.4503 57.2869 34.697 58.5261 35.4469 59.2324C35.9107 59.6661 36.3843 60.075 36.8876 60.4468L37.4204 60.8309C37.9138 61.1779 38.4269 61.4877 38.9499 61.7727C39.8083 62.2312 40.7852 61.8842 41.4167 61.0044L43.3704 58.2534C44.0414 58.3897 44.7321 58.4641 45.4327 58.4641C46.1333 58.4641 46.824 58.3897 47.495 58.2534L49.4487 61.0044L49.4389 61.0292ZM45.4228 36.6795C46.0448 36.6795 46.6607 36.8333 47.2354 37.1322C47.81 37.4312 48.3321 37.8693 48.7719 38.4216C49.2117 38.9739 49.5606 39.6296 49.7986 40.3513C50.0367 41.0729 50.1592 41.8464 50.1592 42.6275C50.1592 43.4086 50.0367 44.182 49.7986 44.9037C49.5606 45.6253 49.2117 46.281 48.7719 46.8334C48.3321 47.3857 47.81 47.8238 47.2354 48.1227C46.6607 48.4217 46.0448 48.5755 45.4228 48.5755C44.8009 48.5755 44.185 48.4217 43.6103 48.1227C43.0357 47.8238 42.5136 47.3857 42.0737 46.8334C41.6339 46.281 41.2851 45.6253 41.047 44.9037C40.809 44.182 40.6865 43.4086 40.6865 42.6275C40.6865 41.8464 40.809 41.0729 41.047 40.3513C41.2851 39.6296 41.6339 38.9739 42.0737 38.4216C42.5136 37.8693 43.0357 37.4312 43.6103 37.1322C44.185 36.8333 44.8009 36.6795 45.4228 36.6795Z" fill="#13252F"/>
</g>
<defs>
<clipPath id="clip0_239_5570">
<rect width="62" height="62" fill="white"/>
</clipPath>
</defs>
</svg>
