<svg width="62" height="62" viewBox="0 0 62 62" fill="none" xmlns="http://www.w3.org/2000/svg">
<g clip-path="url(#clip0_244_6056)">
<path d="M4.40743 7.75C4.40743 5.69457 5.10786 3.72333 6.35463 2.26992C7.6014 0.816516 9.29238 0 11.0556 0C12.8188 0 14.5098 0.816516 15.7565 2.26992C17.0033 3.72333 17.7037 5.69457 17.7037 7.75C17.7037 9.80543 17.0033 11.7767 15.7565 13.2301C14.5098 14.6835 12.8188 15.5 11.0556 15.5C9.29238 15.5 7.6014 14.6835 6.35463 13.2301C5.10786 11.7767 4.40743 9.80543 4.40743 7.75ZM0.449711 28.2633C0.802894 23.2379 4.40743 19.375 8.72873 19.375H13.3824C16.1871 19.375 18.6802 20.9977 20.1864 23.5043C19.9059 23.7344 19.6462 23.9887 19.4073 24.2672L12.7592 32.0172C10.4843 34.6691 10.4843 38.9559 12.7592 41.6078L17.7037 47.3719V56.1875C17.7037 59.3965 15.4704 62 12.7176 62H9.39354C6.64079 62 4.40743 59.3965 4.40743 56.1875V42.177C1.65469 41.0266 -0.235878 37.8418 0.0238145 34.2332L0.449711 28.2633ZM44.2963 7.75C44.2963 5.69457 44.9967 3.72333 46.2435 2.26992C47.4902 0.816516 49.1812 0 50.9444 0C52.7076 0 54.3986 0.816516 55.6454 2.26992C56.8921 3.72333 57.5926 5.69457 57.5926 7.75C57.5926 9.80543 56.8921 11.7767 55.6454 13.2301C54.3986 14.6835 52.7076 15.5 50.9444 15.5C49.1812 15.5 47.4902 14.6835 46.2435 13.2301C44.9967 11.7767 44.2963 9.80543 44.2963 7.75ZM42.5927 24.2672C42.3538 23.9887 42.0837 23.7344 41.8136 23.5043C43.3198 20.9977 45.8233 19.375 48.6176 19.375H53.2713C57.5926 19.375 61.1971 23.2379 61.5503 28.2633L61.9762 34.2332C62.2359 37.8418 60.3453 41.0266 57.5926 42.177V56.1875C57.5926 59.3965 55.3592 62 52.6065 62H49.2824C46.5296 62 44.2963 59.3965 44.2963 56.1875V47.3719L49.2408 41.6078C51.5158 38.9559 51.5158 34.6691 49.2408 32.0172L42.5927 24.2672ZM26.0139 29.0625V32.9375H35.9861V29.0625C35.9861 27.8879 36.5886 26.8223 37.5235 26.3742C38.4584 25.9262 39.5283 26.1684 40.2451 27.0039L46.8932 34.7539C47.8697 35.8922 47.8697 37.7328 46.8932 38.859L40.2451 46.609C39.5283 47.4445 38.4584 47.6867 37.5235 47.2387C36.5886 46.7906 35.9861 45.725 35.9861 44.5504V40.6875H26.0139V44.5625C26.0139 45.7371 25.4114 46.8027 24.4765 47.2508C23.5416 47.6988 22.4717 47.4566 21.7549 46.6211L15.1068 38.8711C14.1303 37.7328 14.1303 35.8922 15.1068 34.766L21.7549 27.016C22.4717 26.1805 23.5416 25.9383 24.4765 26.3863C25.4114 26.8344 26.0139 27.9 26.0139 29.0746V29.0625Z" fill="#13252F"/>
</g>
<defs>
<clipPath id="clip0_244_6056">
<rect width="62" height="62" fill="white"/>
</clipPath>
</defs>
</svg>
