<svg width="62" height="62" viewBox="0 0 62 62" fill="none" xmlns="http://www.w3.org/2000/svg">
<g clip-path="url(#clip0_228_1842)">
<path d="M31 31C35.6981 31 40.2038 29.367 43.5259 26.4602C46.848 23.5533 48.7143 19.6109 48.7143 15.5C48.7143 11.3891 46.848 7.44666 43.5259 4.53984C40.2038 1.63303 35.6981 0 31 0C26.3019 0 21.7962 1.63303 18.4741 4.53984C15.152 7.44666 13.2857 11.3891 13.2857 15.5C13.2857 19.6109 15.152 23.5533 18.4741 26.4602C21.7962 29.367 26.3019 31 31 31ZM24.6754 36.8125C11.0437 36.8125 0 46.4758 0 58.4035C0 60.3895 1.84063 62 4.11027 62H57.8897C60.1594 62 62 60.3895 62 58.4035C62 46.4758 50.9562 36.8125 37.3246 36.8125H24.6754Z" fill="#13252F"/>
</g>
<defs>
<clipPath id="clip0_228_1842">
<rect width="62" height="62" fill="white"/>
</clipPath>
</defs>
</svg>
