<svg width="62" height="62" viewBox="0 0 62 62" fill="none" xmlns="http://www.w3.org/2000/svg">
<g clip-path="url(#clip0_228_1846)">
<path d="M13.2857 0C5.95089 0 0 5.20703 0 11.625V50.375C0 56.793 5.95089 62 13.2857 62H53.1429H57.5714C60.021 62 62 60.2684 62 58.125C62 55.9816 60.021 54.25 57.5714 54.25V46.5C60.021 46.5 62 44.7684 62 42.625V3.875C62 1.73164 60.021 0 57.5714 0H53.1429H13.2857ZM13.2857 46.5H48.7143V54.25H13.2857C10.8362 54.25 8.85714 52.5184 8.85714 50.375C8.85714 48.2316 10.8362 46.5 13.2857 46.5ZM17.7143 17.4375C17.7143 16.3719 18.7107 15.5 19.9286 15.5H46.5C47.7179 15.5 48.7143 16.3719 48.7143 17.4375C48.7143 18.5031 47.7179 19.375 46.5 19.375H19.9286C18.7107 19.375 17.7143 18.5031 17.7143 17.4375ZM19.9286 23.25H46.5C47.7179 23.25 48.7143 24.1219 48.7143 25.1875C48.7143 26.2531 47.7179 27.125 46.5 27.125H19.9286C18.7107 27.125 17.7143 26.2531 17.7143 25.1875C17.7143 24.1219 18.7107 23.25 19.9286 23.25Z" fill="#13252F"/>
</g>
<defs>
<clipPath id="clip0_228_1846">
<rect width="62" height="62" fill="white"/>
</clipPath>
</defs>
</svg>
