<svg width="62" height="62" viewBox="0 0 62 62" fill="none" xmlns="http://www.w3.org/2000/svg">
<path d="M0 11.75C0 7.47539 3.47539 4 7.75 4H54.25C58.5246 4 62 7.47539 62 11.75V50.5C62 54.7746 58.5246 58.25 54.25 58.25H7.75C3.47539 58.25 0 54.7746 0 50.5V11.75ZM39.2102 24.6465C38.6652 23.8473 37.7691 23.375 36.8125 23.375C35.8559 23.375 34.9477 23.8473 34.4148 24.6465L23.8797 40.098L20.6707 36.0898C20.1137 35.3996 19.2781 35 18.4062 35C17.5344 35 16.6867 35.3996 16.1418 36.0898L8.3918 45.7773C7.68945 46.6492 7.55625 47.848 8.04063 48.8531C8.525 49.8582 9.54219 50.5 10.6562 50.5H22.2812H26.1562H51.3438C52.4215 50.5 53.4145 49.9066 53.9109 48.95C54.4074 47.9934 54.3469 46.843 53.7414 45.959L39.2102 24.6465ZM13.5625 23.375C15.1041 23.375 16.5825 22.7626 17.6726 21.6726C18.7626 20.5825 19.375 19.1041 19.375 17.5625C19.375 16.0209 18.7626 14.5425 17.6726 13.4524C16.5825 12.3624 15.1041 11.75 13.5625 11.75C12.0209 11.75 10.5425 12.3624 9.45244 13.4524C8.36239 14.5425 7.75 16.0209 7.75 17.5625C7.75 19.1041 8.36239 20.5825 9.45244 21.6726C10.5425 22.7626 12.0209 23.375 13.5625 23.375Z" fill="#13252F"/>
</svg>
